<svg id="Layer_1" data-name="Layer 1" xmlns="http://www.w3.org/2000/svg" viewBox="0 0 80.74 11.79"><title>infinity</title><path d="M42.28,6.8h0Z" transform="translate(-0.13 -0.1)"/><polygon points="44.05 9.05 44.06 9.05 44.09 9.02 44.05 9.05"/><path d="M49.57,3.43c0-.11.14,0,.14-.12C49.69,3.34,49.55,3.32,49.57,3.43Z" transform="translate(-0.13 -0.1)"/><path d="M45.87,2.41h0s0,0,0,0S45.85,2.43,45.87,2.41Z" transform="translate(-0.13 -0.1)"/><polygon points="46.32 2.19 46.31 2.17 46.29 2.17 46.32 2.19"/><path d="M48.66,2.59h0Z" transform="translate(-0.13 -0.1)"/><path d="M48.24,9.75v0h0Z" transform="translate(-0.13 -0.1)"/><path d="M41.69,6.17h0Z" transform="translate(-0.13 -0.1)"/><path d="M43,7.86l.07.1s0-.09.07-.05C43.15,7.73,43.15,8,43,7.86Z" transform="translate(-0.13 -0.1)"/><path d="M42.84,7.53c.05,0,0,0,.05,0S42.83,7.47,42.84,7.53Z" transform="translate(-0.13 -0.1)"/><path d="M42.24,5.58l.06.05S42.27,5.61,42.24,5.58Z" transform="translate(-0.13 -0.1)"/><polygon points="42.74 4.92 42.77 4.83 42.74 4.89 42.74 4.92"/><path d="M46.32,2.29s0,.13,0,.09Z" transform="translate(-0.13 -0.1)"/><path d="M48.34,2.5s-.07-.06-.09-.06S48.29,2.53,48.34,2.5Z" transform="translate(-0.13 -0.1)"/><polygon points="50.18 7.07 50.16 7.02 50.17 7.1 50.18 7.07"/><path d="M38.23,7l-.06,0S38.2,7,38.23,7Z" transform="translate(-0.13 -0.1)"/><path d="M38.74,6.28h0l0,0Z" transform="translate(-0.13 -0.1)"/><polygon points="37.07 3.86 37.05 3.85 37.02 3.88 37.07 3.86"/><path d="M30.44,7.85c0,.09-.14-.07-.17.06S30.43,7.94,30.44,7.85Z" transform="translate(-0.13 -0.1)"/><path d="M33.58,9.89h0s0,0,0,0S33.6,9.88,33.58,9.89Z" transform="translate(-0.13 -0.1)"/><polygon points="32.84 9.75 32.85 9.77 32.88 9.76 32.84 9.75"/><polygon points="33.33 2.15 33.32 2.18 33.34 2.18 33.35 2.17 33.33 2.15"/><polygon points="38.14 6.91 38.13 6.91 38.13 6.91 38.14 6.91"/><path d="M38,5.32c0,.18,0-.07.13.06l-.06-.11S38.08,5.36,38,5.32Z" transform="translate(-0.13 -0.1)"/><path d="M38.31,5.75s.06,0,.05,0S38.33,5.74,38.31,5.75Z" transform="translate(-0.13 -0.1)"/><path d="M37.66,7.64l-.05-.06S37.63,7.6,37.66,7.64Z" transform="translate(-0.13 -0.1)"/><polygon points="36.84 8.03 36.85 8.01 36.81 8.09 36.84 8.03"/><path d="M33.1,9.88s.05-.12,0-.09Z" transform="translate(-0.13 -0.1)"/><path d="M31.26,9.12s0,.09.06.09S31.32,9.11,31.26,9.12Z" transform="translate(-0.13 -0.1)"/><polygon points="30.5 3.94 30.51 3.87 30.49 3.89 30.5 3.94"/><path d="M45.55,11.7s-.08,0-.16-.06Z" transform="translate(-0.13 -0.1)"/><path d="M42.86,10.61l0,0h-.06Z" transform="translate(-0.13 -0.1)"/><path d="M37.33,10.67l0,0,0,0Z" transform="translate(-0.13 -0.1)"/><path d="M53.09,8h0C53.08,8,53.08,8,53.09,8Z" transform="translate(-0.13 -0.1)"/><path d="M41.18,3c.19-.1-.14.31.12.14C41.26,3.19,41.38,2.89,41.18,3Z" transform="translate(-0.13 -0.1)"/><path d="M51.62,1.88v0s.05,0,.07.08S51.67,1.92,51.62,1.88Z" transform="translate(-0.13 -0.1)"/><polygon points="50.07 0.79 50.09 0.82 50.15 0.84 50.07 0.79"/><path d="M53.26,5.23c-.06.1,0,.11-.13-.1l.09.5-.13-.32c0,.15.07.32.07.41-.07-.15-.05-.14-.11-.06.09-.22-.09-.4,0-.65l.18,0c0-.38-.24-.62-.31-1.1v.16c-.09,0-.07-.29-.18-.41.06,0,0-.1,0-.18s-.15-.32-.28-.31l0-.23c-.15-.36-.39-.27-.58-.58.12,0,0-.11.24.06-.08-.1-.14-.2-.17-.17s-.26-.23-.3-.35-.11,0-.21-.08,0,0,0,0-.18-.12-.14,0c-.15-.42-.85-.61-1.07-.89-.26-.08-.56-.2-.8-.25,0,0,0,0,.05,0-.31-.14-.24.1-.59,0-.17-.13.21,0,.1-.07S48.53.48,48.3.33h.06c-.19-.08-.48,0-.8,0,0,0,0,0,0,0a5.53,5.53,0,0,1-.93.15c.09-.08.14,0,.08-.12s0,.12-.23.16c-.09,0-.29-.06-.32-.14l.26,0c-.14-.1-.34,0-.47,0v0c-.4.06-.38.21-.8.28l.05,0c-.19.17-.21,0-.4.13l-.1-.09c-.14.09-.47.3-.7.43a2.61,2.61,0,0,1,.56-.43A1.78,1.78,0,0,0,44,.91a.46.46,0,0,1,.18-.09,3,3,0,0,1-.59.46c0-.11-.21,0-.42.09s-.38.31-.52.31c-.34.42-.86.64-1.27,1.11.27,0-.12.14,0,.24-.08.12-.12.16-.14.16l-.37.26c-.11,0,.06-.13,0-.15-.22.23-.14,0-.32.18.08,0,0,.14-.14.27l.23-.14a.6.6,0,0,1-.29.3c-.09,0-.08,0-.09.06V3.88s0,.06,0,0h0s-.13-.08-.18-.08,0-.12.07,0C39.8,3.36,39.24,3,39,2.6h.06c-.09-.06-.2-.06-.26-.17s.06,0,0,0a1.12,1.12,0,0,1-.35-.23l.12,0a5.36,5.36,0,0,0-1.07-.7c.09-.12-.25-.38-.44-.51h0a2.13,2.13,0,0,0-.81-.34A6.28,6.28,0,0,0,35.5.48a2.63,2.63,0,0,0-.8-.26c-.34,0-.7-.05-1-.11.09,0,0,.09-.12.12s-.37.1-.35,0h0c-.11-.11-.39-.08-.61-.06l0,.16C32,.1,31.19.65,30.84.55c-.12.09-.28.16-.4.25l0-.08a3,3,0,0,0-1,.54l0-.11c-.24.17-.15.4-.32.58l-.14,0a3.48,3.48,0,0,0-.89,1.13.09.09,0,0,1,0-.12c-.12.19-.47.76-.27.75-.11,0-.23.44-.22.71l-.07-.06a1,1,0,0,1,0,.55c0,.07-.08,0,0,0-.09.22,0,.19-.05.46l0-.11a.5.5,0,0,0,.06.36c0,.15-.06.45-.13.48a.35.35,0,0,1,.06.31s0,0-.05-.06c0,.4.14.59.08.87a.07.07,0,0,0,0,.05c0-.32,0-.58,0-.55s-.07.27-.19.06a2.38,2.38,0,0,1,.21.81l0,0,0,0a.43.43,0,0,0,.05.16,1.47,1.47,0,0,0,0,.21c-.05,0,0,.3.08.43.08,0,.11.13.13,0,0,0,0,0,0-.1l0-.05h0l-.09-.31a.47.47,0,0,1,.12.33l.18.13c-.09.21,0,.55,0,.62.21.35.44.85.75.94.08.08,0,.13,0,.18s-.1-.11-.14-.12c.17.16.42.52.54.49.17.23-.19,0,.11.22h-.06c.48.68,1.13.56,1.81,1.06,0,0-.07-.05-.08-.07a9.71,9.71,0,0,0,2.85.52c.27,0,.3-.06.46-.12l.06.09.27-.12c.38-.08.71.11,1.18-.12l-.08,0c.18,0,.53-.21.52-.13a.11.11,0,0,1,.11-.07l0,0,.38-.23c.32-.13,0,.2.49,0,.16-.11.4-.38.32-.37s-.18.07-.21,0l.13-.1v0h0a11.11,11.11,0,0,0,1.54-1.22v0l0-.05L39,9.24s0,0,0,.06c.17-.09.08-.15.24-.22s0,0,0,0l.1-.16s.08,0,0,.11c.27-.19.29-.45.44-.48v0c.18-.24.11-.2.08-.24L40,8.18c.08,0,.16,0,.15,0V8.1s.08-.07.08,0c.09-.19,0,0,0-.18.13.16.42.37.36.5.1,0-.07-.16.08-.06l0,0c-.05.14.21.18.29.37-.1,0-.2-.16-.12,0,.18,0,.25.32.39.43s.07,0,.11,0a.14.14,0,0,1-.11,0,.11.11,0,0,0,0,.06s.1,0,.14,0a2.86,2.86,0,0,0,.42.38,6.27,6.27,0,0,0,.58.59h0c.11-.05.32.14.49.24,0,0-.09,0-.19,0l.15.12a.41.41,0,0,1,.22.09l-.08,0c.19.17.49.19.75.41,0,0,0-.17,0-.21l.14.08a.07.07,0,0,1-.09,0,.35.35,0,0,1,.15.06h-.15c.12.1.09,0,.2,0s.06.08,0,.12-.08-.07-.13-.07a1.48,1.48,0,0,1,.29.23s0-.07.13,0,.06.1.19.18.22.08.25,0,.07.07.09.1.62.12.49,0h0c.44,0,.88.19,1.32.17v0a2.75,2.75,0,0,0,.75-.08c.08,0,.18,0,.15.08a1.47,1.47,0,0,1,.5-.05c-.19.07.07,0-.2.06a1.05,1.05,0,0,0,.59-.07c-.08.09.21.06.33,0l-.19,0a2.79,2.79,0,0,1,.38-.07l0,.11c.57,0,.87-.45,1.32-.43.1-.12-.29.07-.21-.06s.52-.08.59-.12c.34-.12.2-.29.51-.46-.06,0-.15-.05,0-.23s.32-.1.22,0-.07.05-.08,0-.12.14,0,.11v0c.11-.06.37-.3.35-.2.12-.16,0-.1-.1,0,.28-.18.32-.38.56-.61,0,0-.11,0-.08,0,.33-.36.07-.21.25-.47s.08.13.19-.19c.12-.16.1,0,.09.09a2.13,2.13,0,0,1,.38-.65l0,.16a1.34,1.34,0,0,1,.1-.24l-.11.06c.05-.08.09-.15.11-.14s-.13,0-.14-.17.06-.37.16-.39c-.13.37.1,0,0,.31a.81.81,0,0,1,.06-.23s0,0,0,0c.18-.35-.06-.2,0-.57,0,.06.13-.07.12-.13,0,.15-.09.06-.12-.09s0-.27,0-.39l0,.14c0-.06,0-.17,0-.34,0,0,0,.15,0,.1s.14-.42.07-.68.1,0,.12-.12C53.2,5.57,53.34,5.54,53.26,5.23ZM27.56,7.85l0,0c0-.08,0-.12,0-.13l0,.15Zm16.6,1.32-.4-.37,0,0-.15-.14,0,0h-.07l0,0s0,0,.07,0-.08,0-.07-.1,0,0,0,0l-.08,0s.05-.07.07,0c0-.14-.21-.08-.17-.17h0c-.12-.07-.1,0-.17,0l0,0L43.23,8l-.08.05s0,0,0-.06,0,0-.09,0-.2-.14-.1-.26c-.07,0,0,.1-.08.06.1-.12-.09-.06-.08-.17s.09.05.1-.06c-.13.05-.07-.14-.13-.17a.05.05,0,0,1-.07,0,.08.08,0,0,1,.07,0l0,0s-.07,0-.11.05-.09-.11-.16-.15-.09-.2-.12-.31h0c-.1.05-.15,0-.22-.09a.13.13,0,0,1,.13,0l0-.06a.12.12,0,0,1-.11,0l.08,0c-.06-.07-.2-.09-.23-.22,0,0-.08.12-.14.15l0,0s.05,0,.07,0-.05,0-.05,0H42c0-.06-.07,0-.09,0s0-.05.05-.08,0,0,0,0a.18.18,0,0,1,0-.16s-.06,0-.09,0,0-.05.06-.09,0,0-.12,0,0,0,.06,0a.14.14,0,0,1-.08-.05s0,0-.07,0h0c0-.13.2-.18.27-.34l0,0c0-.1.12-.18.11-.28a.08.08,0,0,1,.11,0c0-.07,0-.1.11-.16s.05,0,0,.08.13,0,.13-.18c0,.07.12,0,.13,0l-.08,0a.39.39,0,0,1,.09-.11l.06.08c.21-.08.06-.41.31-.4,0-.09-.1.05-.14,0s.23,0,.25-.07,0-.18.07-.26A.12.12,0,0,1,43,4.34c.07-.06.18,0,.17.07s0,0,0,0,0,.07,0,.07l0,0c.06,0,.13-.11.16-.05s0-.06-.07,0c.11-.06.11-.14.21-.22s-.07,0-.06,0,0-.1.07-.19.08.1.13,0,.08.05.08.09c0-.12.17-.11.22-.14l0,.06a.16.16,0,0,1,0-.07l-.07,0s.05,0,.07,0-.1-.07-.1-.16.07-.12.14-.06c-.12.07.08.06,0,.15A.1.1,0,0,1,44,3.7s0,0,0,0,0-.12.07-.22.09.05.1,0-.08,0-.07-.12.06-.08.09-.11l-.06,0c0-.05,0-.07.06-.12s0,.05,0,.06.19,0,.22-.12.06.08.11.08.13,0,.19-.12-.06,0,0-.13l-.12.15,0-.15s-.07.11-.1.11,0-.06,0-.1c.12,0,.09-.14.2-.13l.1.15c.15,0,.13-.23.31-.26h-.06c0-.07.09-.05.12-.1s.06.06.1.08.11-.05.07-.16l.1,0c.13,0,.08-.21.21-.23s.05.09,0,.17.08,0,.07-.05.09-.12.14-.07,0-.09,0-.1a0,0,0,0,1,0,0s.07-.05,0-.11c.18.16.38-.09.52,0l.29-.06s0,0,0,0,.07-.17.21-.12-.07.05,0,.09c0,.19.16,0,.25.1h0c.07.07.17-.06.29,0a0,0,0,0,0,0,0,.55.55,0,0,1,.36-.12c0,.07-.06,0,0,.11s0-.13.11-.12.09.1.08.19l-.09,0c0,.12.12,0,.16.06l0,0c.14,0,.17-.09.32,0v0c.12-.09,0,.08.16,0l0,.12a1.2,1.2,0,0,1,.32,0,.87.87,0,0,1-.29.06.33.33,0,0,0,.17,0h0a.3.3,0,0,1,.3,0c-.13.19.23.17.18.38.19,0,.27.25.43.38.08-.19,0,0,.17-.09,0,0,.05.05,0,.06h0V3.5c0,.06-.06,0-.09,0s0,.08,0,.17.1,0,.11,0V3.6c.17.06,0,.19.13.25h-.08c.08,0,.12.25.29.25,0,0-.05.06-.08,0,.06.17.34.31.27.5h0s.1,0,.06.09,0,0,0,0,.1.07.09.13l-.06,0c0,.19.2.25.25.41-.13,0-.16.17-.18.25h0c0,.22.14.36.2.57-.15.13-.09.44-.18.63,0,0,.1,0,.11.05s.08.15,0,.12v0c-.12,0-.09.12-.12.19l.15,0c-.27.15,0,.54-.26.59,0,.06,0,.11,0,.17l-.08,0a.93.93,0,0,0-.16.31l0-.06c0,.08.17.22.14.3l-.12,0c-.08.14-.28.18-.28.38,0,0,0,0,0-.06s-.23.16-.09.26c-.08-.08-.13.09-.17.19l0-.07c0,.13,0,.15,0,.24s-.06,0,0,0,0,.1-.11.13V9.29c-.07,0,0,.07,0,.15s-.16.06-.2,0,0,.12-.06.12a.05.05,0,0,1,0-.06c-.15,0-.15.18-.27.15s0,0,0,0l.18-.07c0-.07-.12,0-.1-.17,0,.08-.09.25-.19.26l0,0h0a.07.07,0,0,0,0,0h-.08c0-.06-.11,0-.15,0s0,.08,0,.14l0,0h0l.11,0s0,.09-.11.06a1.47,1.47,0,0,1,0,.15c-.1-.1-.23-.13-.26-.2-.12.09-.3.11-.37.26s-.05,0-.07-.06,0,0,.06,0-.23,0-.25.15c-.11,0,0-.11-.09-.08l0,0c-.27-.14-.45.31-.75,0,0,0,0,0,0,0-.33-.1-.73,0-1-.27-.08-.07-.11,0-.18,0l0-.09-.13.05c-.17,0-.12-.3-.35-.25V9.5s-.19-.09-.14-.14-.05,0-.06,0l0,0-.18,0c-.08-.1.13-.14,0-.25s-.24,0-.24,0a.08.08,0,0,1,0,.1l-.07,0,0,0ZM42.13,7h0Zm6.16,2.62,0,0h0a.13.13,0,0,1,0,0S48.28,9.61,48.29,9.62ZM43.47,8.46s0,0,0,0l0,0ZM37.85,4.71l0,.05-.07,0S37.84,4.71,37.85,4.71Zm.64.81h0Zm.22,1.05s0,.05,0,.06l0-.08c-.06,0,0,.06,0,.09s-.05,0-.09,0,0,0,0,0a.2.2,0,0,1-.16,0s.06,0,0,.08-.08,0-.14,0-.05.06,0,.12-.05,0-.08,0-.14.19,0,.2h0c0,.18-.25.23-.33.38l0,0c0,.1-.12.18-.12.28a.07.07,0,0,1-.1,0c0,.07,0,.1-.12.15s-.05,0,0-.08c-.08.06-.13,0-.14.17,0-.08-.12,0-.14,0h.09a.38.38,0,0,1-.1.1l-.05-.09c-.23,0-.11.39-.36.35,0,.09.11,0,.13.05s-.24,0-.26,0,0,.19-.1.25a.12.12,0,0,1,.06.17c-.07.05-.18,0-.16-.09s0,0,0,0,0-.07,0-.07v0c-.06,0-.14.09-.16,0s0,.06.07,0c-.12,0-.13.12-.24.18s.07,0,.05,0,0,.1-.09.19-.06-.12-.13,0S36,9,36,9c0,.11-.18.07-.24.09l0-.05a.15.15,0,0,1-.06.06l.06,0s-.05,0-.07,0,.09.08.07.18-.09.11-.15,0c.13,0-.06-.07,0-.15a.09.09,0,0,1-.07,0s0,0,0,0,0,.13-.11.18-.08-.08-.09-.06.06.07,0,.13-.07.07-.11.08h.05c0,.05,0,.07-.08.11s0,0,0-.06-.17,0-.23.07,0-.09-.08-.1-.13,0-.21,0,.05,0,0,.13L35,9.62l-.08.13c.05,0,.1-.07.13-.07s0,.05,0,.1c-.11-.08-.13.1-.23.05l0-.17c-.14,0-.19.15-.36.15l.06,0c0,.07-.1,0-.15.07s0-.08-.07-.11-.12,0-.12.12L34,9.83c-.13,0-.14.18-.28.17,0-.07,0-.1.06-.16s-.08,0-.08,0-.12.09-.16,0,0,.09-.08.08a.05.05,0,0,1,0,0s-.08,0,0,.1c-.13-.2-.39,0-.49-.18a.75.75,0,0,1-.3,0s0,0,0,0-.11.15-.23.05.08,0,.05-.08-.17,0-.22-.15h0c0-.08-.19,0-.28,0a.05.05,0,0,0,0,0,.56.56,0,0,1-.37,0c.07-.05.06,0,.08-.09s0,.12-.14.09-.06-.11,0-.19l.09,0c0-.11-.11,0-.14-.08l0,0c-.12-.07-.18,0-.3-.08v0c-.14,0,0-.1-.13-.08l.06-.11A.84.84,0,0,1,30.88,9a1.88,1.88,0,0,1,.31,0S31,8.93,31,8.95,31,9,31,9a.24.24,0,0,1-.27-.1c.18-.14-.13-.26,0-.42-.2-.09-.13-.34-.25-.51-.13.14,0-.05-.19,0s0-.06,0-.07h0a1.18,1.18,0,0,1,0-.18c0-.05,0,0,.09,0s.06-.07.09-.15-.1,0-.09-.08l-.06.11c-.13-.12.12-.17,0-.3l.07,0c-.05-.07-.07-.28-.23-.33,0,0,.06,0,.08,0,0-.19-.19-.42-.11-.58h0s-.09-.06,0-.11,0,0,0,0-.09-.09-.06-.14l.05,0c0-.19-.12-.29-.14-.46.13,0,.19-.14.21-.21h0c0-.22-.1-.39-.08-.59.17-.09.15-.41.29-.56,0,0-.09,0-.09-.08s0-.15.08-.1h0c.12,0,.13-.08.17-.14L30.48,4c.26-.08.19-.49.43-.45,0-.06,0-.1,0-.17l.06.06.25-.24,0,.06c.07,0-.07-.25,0-.31l.1.08c.13-.1.3-.12.39-.27,0,0,0,.05,0,.07s.29,0,.19-.19c0,.1.15-.06.21-.15l0,.08c0-.13,0-.15.12-.21s0,.06,0,0,0-.09.15-.07l0,.06c.08,0,.07,0,.1-.11a.13.13,0,0,1,.19.05s0-.12.09-.11a.06.06,0,0,1,0,.06c.14,0,.2-.12.31-.05a.08.08,0,0,0,0,0h-.2c0,.08.1.08,0,.19.06-.06.17-.2.26-.17v0h0a.06.06,0,0,0,.05,0l.07,0c0,.06.1,0,.15,0s.05-.08,0-.14l0,0h-.13s.07-.08.12,0l.06-.14c.07.11.19.17.2.25s.31,0,.42-.16,0,.05,0,.08-.05,0-.07,0,.23,0,.27-.07c.09.07-.08.09.06.1l0,0c.2.21.51-.14.71.19,0,0,0,0,0-.05.26.23.67.29.85.63.06.08.11,0,.19,0l0,.08.15,0c.18,0,0,.34.27.35l0-.06c0,.06.18.12.12.16s.06,0,.06,0l0,0,.17.06c.07.11-.15.12,0,.25s.24,0,.25,0a.08.08,0,0,1,0-.1l.06,0,0,0h0l.35.41,0,0,.11.14,0,0h.07l0,.05s0,0-.07,0,.07,0,.06.11h0l.07,0s-.06.07-.07,0c0,.14.2.1.15.19h0c.12.09.1,0,.2,0l0,0L38,5.2l.08,0s0,0,0,.07,0,0,.09,0,.18.16.08.27c.07,0,0-.1.09-.06-.11.12.09.07.08.17s-.09-.05-.1.05c.14,0,.07.14.13.17a.06.06,0,0,1,.07,0,.08.08,0,0,1-.07,0l0,0s.08,0,.11,0,.09.11.15.15.07.19.06.24h0c.11,0,.2.05.18.1a.35.35,0,0,1-.14,0s0,0,0,0,0,0,0,.05l-.08,0s0,.11-.09.18c0,0,.14.05.18.1l0,0S38.7,6.59,38.71,6.57ZM33.37,2.38h.05a.17.17,0,0,1,0,0S33.37,2.4,33.37,2.38Z" transform="translate(-0.13 -0.1)"/><path d="M27.66,7.95l0,0V7.93l0,0Z" transform="translate(-0.13 -0.1)"/><path d="M45.33,11.61l0,0h0Z" transform="translate(-0.13 -0.1)"/><path d="M40.3,8.17c.14.29,0-.14.16.09l-.15-.2C40.34,8.14,40.35,8.22,40.3,8.17Z" transform="translate(-0.13 -0.1)"/><path d="M41,9c.1.06.12.08.05,0S41,9,41,9Z" transform="translate(-0.13 -0.1)"/><path d="M47.61,11.82v.08C47.73,11.88,47.59,11.87,47.61,11.82Z" transform="translate(-0.13 -0.1)"/><polygon points="49.69 11.45 49.9 11.33 49.74 11.41 49.69 11.45"/><path d="M50.53,1v.1C50.61,1.11,50.68,1,50.53,1Z" transform="translate(-0.13 -0.1)"/><path d="M44.89.53a2.51,2.51,0,0,0,.31,0A.35.35,0,0,0,44.89.53Z" transform="translate(-0.13 -0.1)"/><polygon points="32.35 0.07 32.14 0.12 32.24 0.11 32.35 0.07"/><path d="M.15,6.68l0-.23,0,.06C.12,6.57.13,6.7.15,6.68Z" transform="translate(-0.13 -0.1)"/><path d="M.24,6.65c0,.06,0-.05-.05.09s.08.19.12,0a.62.62,0,0,1,0,.15,1.55,1.55,0,0,0,0-.52c0,.22,0,.13-.07.39C.26,6.83.24,6.73.24,6.65Z" transform="translate(-0.13 -0.1)"/><path d="M2.82,7.3l0,.07C2.87,7.29,2.84,7.31,2.82,7.3Z" transform="translate(-0.13 -0.1)"/><path d="M.65,6.38l0,.06,0,0Z" transform="translate(-0.13 -0.1)"/><path d="M2.13,7.48h0v.09Z" transform="translate(-0.13 -0.1)"/><polygon points="17.74 6.92 17.73 6.93 17.73 7.04 17.74 6.92"/><path d="M9.6,7.78c0-.18.08-.23,0-.42C9.62,7.44,9.54,7.67,9.6,7.78Z" transform="translate(-0.13 -0.1)"/><path d="M6.69,7.53s0,0,0,0v0S6.7,7.57,6.69,7.53Z" transform="translate(-0.13 -0.1)"/><path d="M7.14,7.53v0h0Z" transform="translate(-0.13 -0.1)"/><path d="M15.88,6.14c0,.06,0,.12,0,.18C15.9,6.18,16,6.13,15.88,6.14Z" transform="translate(-0.13 -0.1)"/><path d="M.67,6.4h0a.35.35,0,0,0,0,.07A.21.21,0,0,1,.67,6.4Z" transform="translate(-0.13 -0.1)"/><path d="M7,6a.43.43,0,0,0,0,.14V6.07Z" transform="translate(-0.13 -0.1)"/><path d="M.42,6.79s0-.12,0-.17a.34.34,0,0,0,0,.11Z" transform="translate(-0.13 -0.1)"/><path d="M.42,6.62v0h0Z" transform="translate(-0.13 -0.1)"/><path d="M17.8,6.15l-.07.2,0-.16h.06c0-.15-.06,0-.08.07a.56.56,0,0,0,0-.17l-.07.31c0-.13,0-.25,0-.32,0,.14,0,.29,0,.38,0-.15,0-.27-.07-.14a.38.38,0,0,1,0-.17c0,.1-.1,0-.12.22,0-.18-.12,0-.12-.26,0,.07-.06.24-.1.25.06-.37-.12,0-.11-.42,0,.33-.16.15-.24.33,0,0,0-.08,0-.06s-.06-.13-.09-.19a1.62,1.62,0,0,1-.11.51c-.05-.26,0-.32,0-.58,0,.22-.1.22-.08.41A1,1,0,0,1,16.51,6c0,.34,0,.06-.07.27-.06-.17,0-.32-.08-.22a.36.36,0,0,1,0-.23c-.07,0,0,.25,0,.4s0-.19-.07-.32c-.05.07-.09.31-.13.3a.38.38,0,0,1,0-.11c-.05.21-.16,0-.22.27V6.32c0,.13,0,.26,0,.35s-.06.16-.07,0c0,0,0-.06,0-.12l0,.07c0-.24,0-.08,0-.26-.06.08-.14.28-.18.21,0-.24.11-.08,0-.29l.07.09c-.06-.37,0,0,0-.37-.1-.07-.11.12-.21.05,0,.13,0,.2,0,.33s-.11-.6-.21-.28c0,.16,0,.46-.11.3l0-.27c-.09,0-.05.39-.15.21s.07-.09.06-.12c-.06-.21,0,.15-.09.15V6.13c-.1,0-.21.21-.32.25a.51.51,0,0,0,0-.22c-.14.12-.3,0-.44-.17l-.05.21a.22.22,0,0,1,0-.13c-.05-.08,0,.13,0,.21s0-.12,0-.18c-.09.17-.27.38-.36.16l0-.06c-.08-.08-.09.42-.16.23v0c-.17-.09-.35.1-.48-.21,0,.3-.17-.13-.18.28-.09-.2,0-.28-.16-.42s-.06.26-.06.3V6.12l-.1.23-.05-.26-.05.06a.3.3,0,0,1,0,.16c-.06.1-.16-.15-.16-.26l-.16.18a.42.42,0,0,1,0-.17c-.08.22,0-.23-.09,0a.77.77,0,0,1,0,.17c0-.13-.12-.13-.19-.08V6c-.11,0-.24.07-.37.07a.51.51,0,0,1,0,.35V6.17c0,.14,0,.09,0,.26,0,0,0-.26,0-.33l-.06.08c0-.07,0-.1,0-.19,0,.14-.1-.23-.13,0V5.93c-.13,0-.18.08-.29.09,0,.2,0,.15-.07.31-.08-.06-.16-.22-.25-.2s0,.17,0,.28c0-.18-.1-.16,0-.29a.45.45,0,0,0-.28.18.44.44,0,0,1,0,.17s-.06-.08-.05-.16v0c-.16.27-.36-.52-.49-.15v0L10,6.32c-.06,0,0-.14,0-.25-.14.3-.22,0-.33.16-.09-.53-.31,0-.43-.3v.12c0,.12,0-.07-.06-.1s0,.11,0,.18c-.26.15-.54-.18-.81-.29-.1,0-.06.64-.18.35l0-.23c-.2.28-.41,0-.6.23,0-.05,0-.12,0-.12,0-.17-.15,0-.15.13,0,0,0-.12,0-.19s-.1.21-.12,0a.12.12,0,0,1,0-.07c0,.08-.12,0-.1.17-.07-.09-.14.09-.2,0,0,.22-.12-.1-.14.2,0-.32-.13-.26-.17-.11,0-.1,0-.1,0-.23s-.1.06-.09.23c-.1-.38-.2.31-.25-.18a1.68,1.68,0,0,1-.44.36c0-.32.16,0,.15-.36-.13.13-.21.4-.34.33s0-.14,0-.19c-.13.13-.26,0-.38.14a.2.2,0,0,1,0-.09s-.05,0-.05.1l0,0c0,.21-.09.44-.1.55,0-.41-.12-.1-.05-.62a.39.39,0,0,0,0,.19s0-.08,0-.19c-.08.08-.05.23-.13.23a1.74,1.74,0,0,1,0-.18c0,.14-.08.27-.14.21s0-.1,0-.1-.19.36-.31.23c0-.3,0-.1,0-.36l-.07.08,0,.13c-.06,0-.11.19-.16.1l0-.11-.11,0,.06.1c-.06.13,0,.33-.07.26s-.06,0-.09-.16h0c0,.08-.06.17-.1.11s0-.29,0-.34c0,.22-.13.06-.17.29a1.11,1.11,0,0,0,0-.22l0,.18a.33.33,0,0,1,0-.19c-.08,0,0,.33-.07.19a.33.33,0,0,1,0-.07c-.09-.07-.18.11-.27,0,0-.26.08-.06,0-.29-.12,0-.26.32-.38.25l0,0c0,.37-.09-.18-.15,0a.64.64,0,0,0,0-.16c-.08-.06-.17.09-.29.21l0-.1c0-.09-.13,0-.18-.09s0,.08,0,.22c-.16-.54-.31.29-.46-.16,0,0,0-.08,0-.08l-.12.09a.78.78,0,0,0,0,.22c0,.1-.05.17-.08.17a.52.52,0,0,0,0-.35s0,.1,0,.15C2,6.46,2,7.07,2,6.87V6.79s-.06.16-.1.13c0-.19,0-.09,0-.24,0,0-.1.35-.14.17s.05-.05.07-.1c0-.22-.05-.16-.09-.2h0l-.08-.1,0,.06c-.06.49-.13.09-.21.41.08-.3,0-.17,0-.39a.41.41,0,0,1,0-.18c0,.17-.07-.13-.12.12,0-.07,0,0,0-.18-.05.05,0,.12,0,.2s-.19-.28-.3,0C.9,6.66.88,6.89.79,7a.45.45,0,0,1,0-.25c0-.1-.09-.08-.13,0a.53.53,0,0,0,0-.19s0,.25-.08.15,0-.2,0-.27-.09.19-.13.25a.64.64,0,0,1,0-.26.55.55,0,0,0-.11.16c0-.11.06.08.06.14l0,0c0,.4.13-.06.2,0L.63,7,.7,6.78a.56.56,0,0,1,0,.28c0,.14,0-.1.08.06a.09.09,0,0,1,0,.05l0-.09c0,.06,0,.21,0,.16.08.17.13-.22.16,0v0c.12-.1,0-.21.1-.46l.06.53V7.12s0,0,0,.11c0-.15,0-.09,0-.23.06.19.16-.09.17.25,0-.16-.05-.13,0-.24,0,.37.07-.06.12.1s-.06.09,0,.26c0-.32.1.07.15,0a.24.24,0,0,1,0-.13.32.32,0,0,1,0,.13s0,.08,0,.14a1.59,1.59,0,0,0,0-.27s.09,0,.14-.06.14.14.21.23v0c0-.26.08-.21.14-.26a.72.72,0,0,1,0,.28h0a.25.25,0,0,1,.06-.16v.19c.07,0,.13-.23.21-.1,0-.18-.07-.5,0-.62a1.06,1.06,0,0,1,0,.3s0-.08,0,0l0,.16c0,.07,0-.14,0-.12s0,.1,0,.21,0-.06,0,0a.34.34,0,0,1,.09.21c0-.08,0-.19,0-.2s0,.17.06.24c0-.1.06,0,.06-.2,0,0,0,.1,0,.15s.16,0,.12-.25H2.67c.11-.21.2.12.2,0v.07c0-.08.28,0,.32-.2a.29.29,0,0,1,.1.21c0-.05.09-.13.16,0s0,.11,0,.09.09.17.16,0c0,.18.05.22.08.17l0-.13s.07,0,.1,0v.23c.13.28.24-.48.34,0,0-.16-.07-.11,0-.31.06,0,.12.37.14.37s.08-.34.17-.25a.67.67,0,0,1,0-.38c.06,0,.08.35,0,.41s0,0,0,0a.16.16,0,0,0,0,.16V7.55c0,.08.11.08.09.21a.14.14,0,0,0,0-.18c.08.12.12,0,.2.08s0-.14,0-.14.05-.16.13-.19c0,.13,0,.3.06.2a.41.41,0,0,1,0,.29c.07-.16.14.1.18.13l0,.07S5,8,5,8l0-.17a.11.11,0,0,1,0,.1,2.88,2.88,0,0,1,0-.42c0,.08.09-.09.1.13-.09-.08,0,.22-.07.26s0,0,.06,0a.1.1,0,0,1,0,.06c.09.2,0-.25.13-.24s0,.24,0,.21,0-.21,0-.3c.06.1.06-.07.1-.06l0,0c0-.12,0-.11.08-.15s0,.07,0,.11c0-.22.11.23.17.08,0,.08,0,.23,0,.29.07-.16.08.17.16,0a.39.39,0,0,1,0-.29l-.12.12.08-.24s-.08.11-.1.08a.34.34,0,0,0,0-.23c.05.25.1-.15.16,0v.41c.09.18.16-.21.28-.11l0-.07c0-.16.07,0,.11-.09a.93.93,0,0,0,0,.27c0-.1.09,0,.1-.27l.05.18c.09.07.11-.39.2-.35s0,.25,0,.36.06,0,.06-.07c0,.09.09-.19.11-.05,0-.06,0-.21.05-.19a.36.36,0,0,1,0,.07c0-.07.05-.09,0-.25.09.43.26,0,.34.34a.6.6,0,0,1,.21-.1s0,.07,0,.05.05-.4.15-.25-.05.12,0,.21c0,.45.11-.06.18.2l0,0c0,.15.12-.17.2-.14a.36.36,0,0,0,0,.07A.59.59,0,0,1,8,7.19a.67.67,0,0,0,0,.27s0-.29.06-.34a1.41,1.41,0,0,1,.08.38H8.1c0,.25.08,0,.12,0v.11c.1,0,.1-.31.21-.29V7.28c.06-.27,0,.15.11,0l0,.28a1.45,1.45,0,0,1,.2-.32,1.76,1.76,0,0,1-.17.43.16.16,0,0,0,.12-.1s0,0,0,0c0-.22.11-.32.18-.32,0,.54.2.14.25.55.13-.2.27.08.42.05-.05-.42,0,0,0-.44,0,0,0,0,.05,0h0l.11.26c0,.12,0,.09,0,.19s0,.18.09.29c0-.15,0-.22.07-.16l-.06-.2c.11-.23.1.36.21.13L10,8c.06-.08.21,0,.27-.34a.37.37,0,0,1,0,.2c.14.05.3-.37.41-.15v.1s0-.2.08-.09,0,.1,0,.11.07-.18.1-.12l0,.12c.13.14.21-.29.32-.36a.54.54,0,0,0,.16.46V8c.16,0,.26-.26.41-.38.09.33.3.14.45.33a.5.5,0,0,1,0-.27c0,.06.09-.21.09.07h0c0,.28.09.2.15.21V7.56c.14.54.37-.2.45.28,0-.09.08-.09.11-.18v.2a.25.25,0,0,0,.26,0l0,.14c.07,0,.08-.57.14-.58l0,.3c.12,0,.23.25.35,0,0,0,0,.13,0,.14s.21.2.19-.21c0,.26.12,0,.18-.09v.2c.05-.25.05-.32.13-.39a.2.2,0,0,1,0,.11s0-.18.1-.09l0,.12c.06,0,.05-.05.09-.2s.11,0,.12.23c0-.11,0-.25.08-.2a.33.33,0,0,1,0,.13c.1.13.15-.23.22,0a.5.5,0,0,0,0,.12c-.08,0-.14,0-.14,0,0,.18.06.21,0,.46.05-.14.14-.43.2-.35v.08s0,0,0,0,0,.05.05.05.07.08.11.09c0-.2,0-.17,0-.33,0,0,0,0,0,0v0h-.08c0-.1.05-.18.09-.08l0-.32c0,.27.13.42.14.59.1-.11.23-.07.29-.44,0,0,0,.11,0,.16s0,0,0,.08.16,0,.18-.3c.07.12,0,.24.06.2v.08c.19.41.31-.66.52-.13a.22.22,0,0,1,0-.09c.24.23.49-.22.73.15.07.07.07-.09.12-.22v.21l.07-.24c.1-.18.17.52.3.18l0-.14s.14-.08.13.08c0,0,0-.15,0-.07v.11l.11-.19c.09.08,0,.44.11.46a.81.81,0,0,0,.12-.4s0-.07,0-.18l0-.06A2.22,2.22,0,0,0,17.8,6.15Zm-3.11.45s0-.08,0-.14h.06C14.71,6.53,14.71,6.59,14.69,6.59Zm.09-.15h0Zm.16,1.29v.07s0,0,0-.05Z" transform="translate(-0.13 -0.1)"/><path d="M14.14,7.5h0S14.14,7.5,14.14,7.5Z" transform="translate(-0.13 -0.1)"/><path d="M8.71,7.46s0,0,0,.05Z" transform="translate(-0.13 -0.1)"/><path d="M15,7.55h0v0Z" transform="translate(-0.13 -0.1)"/><path d="M2.8,7.24v0h0Z" transform="translate(-0.13 -0.1)"/><polygon points="12.67 5.97 12.67 6.02 12.68 5.98 12.67 5.97"/><path d="M1.5,6.45v.08h0Z" transform="translate(-0.13 -0.1)"/><path d="M5.4,6.22h0S5.42,6.18,5.4,6.22Z" transform="translate(-0.13 -0.1)"/><path d="M4.24,6.68l0-.09S4.24,6.56,4.24,6.68Z" transform="translate(-0.13 -0.1)"/><polygon points="6.57 5.88 6.57 5.88 6.58 5.88 6.57 5.88"/><path d="M4.33,6.59s0,0-.05,0S4.31,6.62,4.33,6.59Z" transform="translate(-0.13 -0.1)"/><path d="M.42,6.35v0Z" transform="translate(-0.13 -0.1)"/><path d="M.38,6.45l0,0S.39,6.4.38,6.45Z" transform="translate(-0.13 -0.1)"/><path d="M.86,6.43S.8,6.28.77,6.32v.06C.78,6.27.83,6.55.86,6.43Z" transform="translate(-0.13 -0.1)"/><path d="M1.18,7.45c.1.23,0-.17.09-.14l-.08-.06C1.2,7.33,1.22,7.43,1.18,7.45Z" transform="translate(-0.13 -0.1)"/><path d="M1.52,7.57c0-.07,0-.09,0-.15S1.53,7.53,1.52,7.57Z" transform="translate(-0.13 -0.1)"/><path d="M3.38,7.6s0-.07,0-.18Z" transform="translate(-0.13 -0.1)"/><polygon points="3.57 6.28 3.56 6.45 3.61 6.39 3.57 6.28"/><polygon points="3.8 7.69 3.86 7.63 3.82 7.67 3.8 7.69"/><path d="M7.06,7.71V7.49S7,7.77,7.06,7.71Z" transform="translate(-0.13 -0.1)"/><path d="M8.4,7.48c0,.11.05.18.08.07S8.42,7.45,8.4,7.48Z" transform="translate(-0.13 -0.1)"/><polygon points="12.28 7.81 12.33 7.75 12.31 7.74 12.28 7.81"/><path d="M80.85,7.27l0,.23,0-.06C80.88,7.38,80.87,7.24,80.85,7.27Z" transform="translate(-0.13 -0.1)"/><path d="M80.69,7.16a.62.62,0,0,1,0-.15,1.55,1.55,0,0,0,0,.52c0-.22,0-.13.07-.39,0,0,0,.07,0,.16s0,.05.05-.09S80.74,7,80.69,7.16Z" transform="translate(-0.13 -0.1)"/><path d="M78.18,6.65l0-.07C78.13,6.65,78.16,6.63,78.18,6.65Z" transform="translate(-0.13 -0.1)"/><path d="M80.35,7.57l0-.06,0,0Z" transform="translate(-0.13 -0.1)"/><path d="M78.87,6.46h0V6.36Z" transform="translate(-0.13 -0.1)"/><polygon points="63 6.82 63.01 6.8 63.01 6.7 63 6.82"/><path d="M71.4,6.16c0,.18-.08.23,0,.42C71.38,6.5,71.46,6.27,71.4,6.16Z" transform="translate(-0.13 -0.1)"/><path d="M74.31,6.41s0,0,0,0v0S74.3,6.38,74.31,6.41Z" transform="translate(-0.13 -0.1)"/><path d="M73.86,6.41v0h0Z" transform="translate(-0.13 -0.1)"/><path d="M65.12,7.8c0-.06,0-.12,0-.18C65.1,7.76,65,7.81,65.12,7.8Z" transform="translate(-0.13 -0.1)"/><path d="M80.33,7.54h0a.35.35,0,0,0,0-.07A.21.21,0,0,1,80.33,7.54Z" transform="translate(-0.13 -0.1)"/><path d="M74,8a.43.43,0,0,0,0-.14v.05Z" transform="translate(-0.13 -0.1)"/><path d="M80.58,7.32v0h0Z" transform="translate(-0.13 -0.1)"/><path d="M80.58,7.15s0,.12,0,.17a.34.34,0,0,0,0-.11Z" transform="translate(-0.13 -0.1)"/><path d="M80.57,7.35c0,.11-.06-.08-.06-.14l0,0c0-.4-.13.06-.2,0l0-.29-.07.24a.56.56,0,0,1,0-.28c0-.14,0,.1-.08-.06a.09.09,0,0,1,0-.05l0,.09c0-.06,0-.21,0-.16-.08-.17-.13.22-.16,0v0c-.12.1,0,.21-.1.46l-.06-.53v.21s0,0,0-.11c0,.15,0,.09,0,.23-.06-.19-.16.09-.17-.25,0,.16.05.13,0,.24,0-.37-.07.06-.12-.1s.06-.09,0-.26c0,.32-.1-.07-.15,0a.24.24,0,0,1,0,.13.32.32,0,0,1,0-.13s0-.08,0-.14a1.59,1.59,0,0,0,0,.27s-.09,0-.14.06-.14-.14-.21-.23v0c0,.26-.08.21-.14.26a.72.72,0,0,1,0-.28h0a.25.25,0,0,1-.06.16V6.42c-.07,0-.13.23-.21.1,0,.18.07.5,0,.62a1.06,1.06,0,0,1,0-.3s0,.08,0,0l0-.16c0-.07,0,.14,0,.12s0-.1,0-.21,0,.06,0,0a.34.34,0,0,1-.09-.21c0,.08,0,.19,0,.2s0-.17-.06-.24c0,.1-.06,0-.06.2,0,0,0-.1,0-.15s-.16,0-.12.25h.14c-.11.21-.2-.12-.2,0V6.6c0,.08-.28,0-.32.2a.29.29,0,0,1-.1-.21c0,.05-.09.13-.16,0s0-.11,0-.09-.09-.17-.16,0c0-.18-.05-.22-.08-.17l0,.13s-.07,0-.1,0V6.25c-.13-.28-.24.48-.34,0,0,.16.07.11,0,.31-.06,0-.12-.37-.14-.37s-.08.34-.17.25a.67.67,0,0,1,0,.38c-.06,0-.08-.35,0-.42s0,0,0,0a.16.16,0,0,0,0-.16V6.4c0-.08-.11-.08-.09-.21a.14.14,0,0,0,0,.18c-.08-.12-.12,0-.2-.08s0,.14,0,.14-.05.16-.13.19c0-.13,0-.3-.06-.2a.41.41,0,0,1,0-.29c-.07.16-.14-.1-.18-.13l0-.07S76,6,76,6l0,.17A.11.11,0,0,1,76,6a2.89,2.89,0,0,1,0,.42c0-.08-.09.09-.1-.13.09.08,0-.22.07-.26s0,0-.06,0a.1.1,0,0,1,0-.06c-.09-.2,0,.25-.13.24s0-.24,0-.21,0,.21,0,.3c-.06-.1-.06.07-.1.06l0,0c0,.12,0,.11-.08.15s0-.07,0-.11c0,.22-.11-.23-.17-.08,0-.08,0-.23,0-.29-.07.16-.08-.17-.16,0a.39.39,0,0,1,0,.29l.13-.12-.08.24s.08-.11.1-.08a.34.34,0,0,0,0,.23c-.05-.25-.1.15-.16,0V6.22c-.09-.18-.16.21-.28.11l0,.07c0,.16-.07,0-.11.09a.93.93,0,0,0,0-.27c0,.1-.09,0-.1.27l-.05-.18c-.09-.07-.11.39-.2.35s0-.25,0-.36-.06,0-.06.07c0-.09-.09.19-.11.05,0,.06,0,.21-.05.19a.37.37,0,0,1,0-.07c0,.07-.05.09,0,.25-.09-.43-.26,0-.34-.34a.6.6,0,0,1-.21.1s0-.07,0-.05-.05.4-.15.25.05-.12,0-.21c0-.45-.11.06-.18-.2l0,0c0-.15-.12.17-.2.14a.36.36,0,0,0,0-.07.59.59,0,0,1-.23.37.67.67,0,0,0,0-.27s0,.29-.06.34a1.41,1.41,0,0,1-.08-.38h.06c0-.25-.08,0-.12,0V6.29c-.1,0-.1.31-.21.29v.08c-.06.27,0-.15-.11,0l0-.28a1.45,1.45,0,0,1-.2.32,1.76,1.76,0,0,1,.17-.43.16.16,0,0,0-.12.1s0,0,0,0c0,.22-.11.32-.18.32,0-.54-.2-.14-.25-.55-.13.2-.27-.08-.42-.05.05.42,0,0,0,.44,0,0,0,0-.05,0h0l-.11-.26c0-.12,0-.09,0-.19s0-.18-.09-.29c0,.15,0,.22-.07.16l.06.2c-.11.23-.1-.36-.21-.13l0-.13c-.06.08-.21,0-.27.34a.37.37,0,0,1,0-.2c-.14-.05-.3.37-.41.15v-.1s0,.2-.08.09,0-.1,0-.11-.07.18-.1.12l0-.12c-.13-.14-.21.29-.32.36A.54.54,0,0,0,69.75,6V6c-.16,0-.26.26-.41.38C69.25,6,69,6.2,68.89,6a.5.5,0,0,1,0,.27c0-.06-.09.21-.09-.07h0c0-.28-.09-.2-.15-.21v.37c-.14-.54-.37.2-.45-.28,0,.09-.08.09-.11.18v-.2a.25.25,0,0,0-.26,0l0-.14c-.07,0-.08.57-.14.58l0-.3c-.12,0-.23-.25-.35,0,0,0,0-.13,0-.14s-.21-.2-.19.21c0-.26-.12,0-.18.09v-.2c-.05.25-.05.32-.13.39a.2.2,0,0,1,0-.11s0,.18-.1.09l0-.12c-.06,0-.05.05-.09.2s-.11,0-.12-.23c0,.11,0,.25-.08.2a.33.33,0,0,1,0-.13c-.1-.13-.15.23-.22,0a.49.49,0,0,0,0-.12c.08,0,.14,0,.14,0,0-.18-.06-.21,0-.46-.05.14-.14.43-.2.35V6.2s0,0,0,0,0-.05-.05-.05S66,6.1,66,6.09c0,.2,0,.17,0,.33,0,0,0,0,0,0v0h.08c0,.1-.05.18-.09.08l0,.32c0-.27-.13-.42-.14-.59-.1.11-.23.07-.29.44,0,0,0-.11,0-.16s0,0,0-.08-.16,0-.18.3c-.07-.12,0-.24-.06-.2V6.38c-.19-.41-.31.66-.52.13a.22.22,0,0,1,0,.09c-.24-.23-.49.22-.73-.15-.07-.07-.07.09-.12.22V6.46l-.07.24c-.1.18-.17-.52-.3-.18l0,.14s-.14.08-.13-.08c0,0,0,.15,0,.07V6.55l-.11.19c-.09-.08,0-.44-.11-.46a.81.81,0,0,0-.12.4s0,.07,0,.18l0,.06a2.22,2.22,0,0,0,.06.89l.07-.2,0,.16h-.06c0,.15.06,0,.08-.07a.56.56,0,0,0,0,.17l.07-.31c0,.13,0,.25,0,.32,0-.14,0-.29,0-.38,0,.15,0,.27.07.14a.38.38,0,0,1,0,.17c0-.1.1,0,.12-.22,0,.18.12,0,.12.26,0-.07.06-.24.1-.25-.06.37.13,0,.11.42,0-.33.16-.15.24-.33,0,0,0,.08,0,.06s.06.13.09.19a1.62,1.62,0,0,1,.11-.51c.05.26,0,.32,0,.58,0-.22.1-.22.08-.41a1,1,0,0,1,.06.31c0-.34,0-.06.07-.27.06.17,0,.32.08.22a.36.36,0,0,1,0,.23c.07,0,0-.25,0-.4s0,.19.07.32c.05-.07.09-.31.13-.3a.38.38,0,0,1,0,.11c.05-.21.16,0,.22-.27v.06c0-.13,0-.26,0-.35s.06-.16.07,0c0,0,0,.06,0,.12l0-.07c0,.24,0,.08,0,.26.06-.08.14-.28.18-.21,0,.24-.11.08,0,.29l-.07-.09c.06.38,0,0,0,.38.1.07.11-.12.21-.05,0-.13,0-.2,0-.33s.11.6.21.28c0-.16,0-.46.11-.3l0,.27c.09,0,.05-.39.15-.21s-.07.09-.06.12c.06.21,0-.15.09-.15v.24c.1,0,.21-.21.32-.25a.51.51,0,0,0,0,.22c.14-.12.3,0,.44.17l.05-.21a.22.22,0,0,1,0,.13c.05.08,0-.13,0-.21s0,.12,0,.18c.09-.17.27-.38.36-.16l0,.06c.08.08.09-.42.16-.23v0c.17.09.35-.1.48.21,0-.3.16.13.18-.28.09.2,0,.28.16.42s.06-.26.06-.3v.22l.1-.23.05.26.05-.06a.3.3,0,0,1,0-.16c.06-.1.16.15.16.26l.16-.18a.42.42,0,0,1,0,.17c.08-.22,0,.23.09,0a.78.78,0,0,1,0-.17c0,.13.12.13.19.08V8c.11,0,.24-.07.37-.07a.51.51,0,0,1,0-.35v.23c0-.14,0-.09,0-.26,0,0,0,.26,0,.33l.06-.08c0,.07,0,.1,0,.19,0-.14.1.23.13,0V8c.13,0,.18-.08.29-.09,0-.2,0-.15.07-.31.08.06.16.22.25.2s0-.17,0-.28c0,.18.1.16,0,.29a.45.45,0,0,0,.28-.18.44.44,0,0,1,0-.17s.06.08.05.16v0c.16-.27.36.52.49.15v0L71,7.62c.06,0,0,.14,0,.25.14-.3.22,0,.33-.16.09.53.31,0,.43.3V7.89c0-.12,0,.07.06.1s0-.11,0-.18c.26-.15.54.18.81.29.1,0,.06-.64.18-.35l0,.23c.2-.28.41,0,.6-.23,0,.05,0,.12,0,.12,0,.17.15,0,.15-.13,0,0,0,.12,0,.19s.1-.21.13,0a.12.12,0,0,1,0,.07c0-.08.13,0,.1-.17.07.09.14-.09.2,0,0-.22.13.1.14-.2,0,.32.13.26.17.11,0,.1,0,.1,0,.23s.1-.06.09-.23c.1.38.2-.31.25.18a1.68,1.68,0,0,1,.44-.36c0,.32-.16,0-.15.36.13-.13.21-.4.34-.33s0,.14,0,.19c.13-.13.26,0,.38-.14a.2.2,0,0,1,0,.09s.05,0,.05-.1l0,0c0-.21.09-.44.1-.54,0,.41.12.1.05.62a.39.39,0,0,0,0-.19s0,.08,0,.19c.08-.08.05-.23.13-.23a1.73,1.73,0,0,1,0,.18c0-.14.08-.27.14-.21s0,.1,0,.1.19-.36.31-.23c0,.3,0,.1,0,.36l.07-.08,0-.13c.06,0,.11-.19.16-.1l0,.11.11,0-.06-.1c.06-.13,0-.33.07-.26s.06,0,.09.16h0c0-.08.06-.17.1-.11s0,.29,0,.34c0-.22.13-.06.17-.29a1.1,1.1,0,0,0,0,.22l0-.18a.33.33,0,0,1,0,.19c.08,0,0-.33.07-.19a.33.33,0,0,1,0,.07c.09.07.18-.11.27,0,0,.26-.08.06,0,.29.13,0,.26-.32.38-.25l0,0c0-.37.09.18.15,0a.64.64,0,0,0,0,.16c.08.06.17-.09.29-.21l0,.1c0,.08.13,0,.18.09s0-.08,0-.22c.16.54.31-.29.46.16,0,0,0,.08,0,.08l.12-.09a.78.78,0,0,0,0-.22c0-.1.05-.17.08-.17a.52.52,0,0,0,0,.35s0-.1,0-.15c.06.29,0-.33.1-.13v.08s.06-.16.1-.13c0,.19,0,.09,0,.24,0,0,.1-.35.14-.17s-.05.05-.07.11c0,.22.05.16.09.2h0l.08.1,0-.06c.06-.49.13-.09.21-.41-.08.3,0,.17,0,.39a.41.41,0,0,1,0,.18c0-.17.07.13.12-.12,0,.07,0,0,0,.18.05-.05,0-.12,0-.2s.19.28.3,0c.1-.13.12-.36.21-.48a.45.45,0,0,1,0,.25c0,.1.09.08.13,0a.53.53,0,0,0,0,.19s0-.25.08-.15,0,.2,0,.27.09-.19.13-.25a.64.64,0,0,1,0,.26A.55.55,0,0,0,80.57,7.35ZM66.06,6.2V6.13s0,0,0,.05Zm.16,1.3h0l0,0Zm.08,0c0-.07,0-.14,0-.13s0,.08,0,.14Z" transform="translate(-0.13 -0.1)"/><path d="M66.86,6.44h0S66.86,6.44,66.86,6.44Z" transform="translate(-0.13 -0.1)"/><path d="M72.29,6.48s0,0,0-.05Z" transform="translate(-0.13 -0.1)"/><path d="M66,6.39h0v0Z" transform="translate(-0.13 -0.1)"/><path d="M78.2,6.7v0h0Z" transform="translate(-0.13 -0.1)"/><polygon points="68.08 7.76 68.08 7.71 68.07 7.76 68.08 7.76"/><path d="M79.5,7.49V7.41h0Z" transform="translate(-0.13 -0.1)"/><path d="M75.6,7.73h0S75.58,7.76,75.6,7.73Z" transform="translate(-0.13 -0.1)"/><path d="M76.76,7.27l0,.09S76.76,7.38,76.76,7.27Z" transform="translate(-0.13 -0.1)"/><polygon points="74.17 7.86 74.17 7.86 74.17 7.86 74.17 7.86"/><path d="M76.67,7.36s0,0,.05,0S76.69,7.33,76.67,7.36Z" transform="translate(-0.13 -0.1)"/><path d="M80.58,7.59v0Z" transform="translate(-0.13 -0.1)"/><path d="M80.62,7.49l0,0S80.61,7.54,80.62,7.49Z" transform="translate(-0.13 -0.1)"/><path d="M80.14,7.51s.06.15.09.11V7.56C80.22,7.67,80.17,7.39,80.14,7.51Z" transform="translate(-0.13 -0.1)"/><path d="M79.82,6.49c-.1-.23,0,.17-.09.14l.08.06C79.8,6.61,79.78,6.51,79.82,6.49Z" transform="translate(-0.13 -0.1)"/><path d="M79.48,6.37c0,.07,0,.09,0,.15S79.47,6.41,79.48,6.37Z" transform="translate(-0.13 -0.1)"/><path d="M77.62,6.34s0,.07,0,.18Z" transform="translate(-0.13 -0.1)"/><polygon points="77.17 7.45 77.19 7.29 77.14 7.34 77.17 7.45"/><polygon points="76.94 6.04 76.88 6.11 76.93 6.07 76.94 6.04"/><path d="M73.94,6.23v.22S74,6.17,73.94,6.23Z" transform="translate(-0.13 -0.1)"/><path d="M72.6,6.46c0-.11-.05-.18-.08-.07S72.58,6.49,72.6,6.46Z" transform="translate(-0.13 -0.1)"/><polygon points="68.46 5.92 68.41 5.98 68.43 6 68.46 5.92"/></svg>